<svg width="35" height="35" viewBox="0 0 35 35" fill="none" xmlns="http://www.w3.org/2000/svg">
<path d="M17.5 30.625L0 13.0886C2.26042 10.8281 4.87934 9.05383 7.85677 7.76564C10.8342 6.47744 14.0486 5.83334 17.5 5.83334C20.9514 5.83334 24.1658 6.47744 27.1432 7.76564C30.1207 9.05383 32.7396 10.8281 35 13.0886L32.9583 15.1667C30.9896 13.1979 28.6806 11.6363 26.0312 10.4818C23.3819 9.32727 20.5382 8.75001 17.5 8.75001C14.9965 8.75001 12.6267 9.14498 10.3906 9.93491C8.15451 10.7248 6.11285 11.8247 4.26562 13.2344L19.5417 28.5469L17.5 30.625ZM31.5 29.1667L27.7448 25.4479C27.3073 25.7153 26.8455 25.9158 26.3594 26.0495C25.8733 26.1832 25.3507 26.25 24.7917 26.25C23.1389 26.25 21.7535 25.691 20.6354 24.5729C19.5174 23.4549 18.9583 22.0695 18.9583 20.4167C18.9583 18.7639 19.5174 17.3785 20.6354 16.2604C21.7535 15.1424 23.1389 14.5833 24.7917 14.5833C26.4444 14.5833 27.8299 15.1424 28.9479 16.2604C30.066 17.3785 30.625 18.7639 30.625 20.4167C30.625 20.9757 30.5582 21.4983 30.4245 21.9844C30.2908 22.4705 30.0903 22.9323 29.8229 23.3698L33.5417 27.125L31.5 29.1667ZM26.8698 22.4948C27.4288 21.9358 27.7083 21.2431 27.7083 20.4167C27.7083 19.5903 27.4288 18.8976 26.8698 18.3386C26.3108 17.7795 25.6181 17.5 24.7917 17.5C23.9653 17.5 23.2726 17.7795 22.7135 18.3386C22.1545 18.8976 21.875 19.5903 21.875 20.4167C21.875 21.2431 22.1545 21.9358 22.7135 22.4948C23.2726 23.0538 23.9653 23.3333 24.7917 23.3333C25.6181 23.3333 26.3108 23.0538 26.8698 22.4948Z" fill="#E3E3E3"/>
</svg>
